<svg width="100" height="100" viewBox="0 0 100 100" fill="none" xmlns="http://www.w3.org/2000/svg">
<path d="M81.8886 99.978C79.0206 99.978 76.3816 99.025 74.4756 97.06L49.6916 71.536L24.1576 96.32C21.8566 98.557 18.5716 99.464 14.9016 98.87C11.3956 98.303 7.93364 96.414 5.15264 93.554C2.37064 90.688 0.583642 87.169 0.119642 83.644C-0.366358 79.957 0.638642 76.696 2.94564 74.46L28.4686 49.672L3.67964 24.137C-0.812358 19.507 0.435642 10.978 6.46064 5.12499C12.4906 -0.723007 21.0486 -1.71301 25.5376 2.91399L50.3316 28.442L75.8566 3.65899C80.4936 -0.835007 89.0236 0.410993 94.8726 6.43399C100.723 12.463 101.715 21.028 97.0836 25.526L71.5596 50.31L96.3376 75.834C100.831 80.465 99.5886 88.996 93.5676 94.85C90.0936 98.221 85.7806 99.978 81.8886 99.978ZM49.7216 68.019C50.1016 68.019 50.4816 68.167 50.7666 68.461L76.5656 95.03C79.9436 98.51 86.6596 97.493 91.5396 92.762C96.4086 88.028 97.6236 81.345 94.2486 77.866L68.4556 51.297C67.8956 50.72 67.9086 49.798 68.4856 49.237L95.0546 23.439C98.5326 20.059 97.5146 13.342 92.7826 8.46599C88.0506 3.59399 81.3696 2.37699 77.8846 5.75199L51.3156 31.549C50.7396 32.11 49.8166 32.096 49.2556 31.519L23.4476 4.94499C20.0766 1.46899 13.3666 2.48799 8.48864 7.21699C3.61664 11.95 2.39564 18.632 5.76864 22.11L31.5716 48.689C32.1316 49.266 32.1186 50.188 31.5416 50.749L4.97264 76.552C3.34264 78.132 2.64464 80.515 3.00664 83.265C3.38864 86.173 4.89264 89.106 7.23964 91.525C9.58664 93.939 12.4726 95.526 15.3646 95.995C18.1016 96.438 20.5006 95.811 22.1246 94.231L48.7046 68.432C48.9906 68.156 49.3556 68.019 49.7216 68.019Z" fill="white"/>
</svg>
